<?xml version="1.0" encoding="UTF-8"?>
<!-- Generator: Adobe Illustrator 22.0.1, SVG Export Plug-In . SVG Version: 6.00 Build 0)  -->
<svg version="1.1" id="Layer_1" xmlns="http://www.w3.org/2000/svg" xmlns:xlink="http://www.w3.org/1999/xlink" x="0px" y="0px" viewBox="0 0 192.6 44.5" style="enable-background:new 0 0 192.6 44.5;" xml:space="preserve">
<style type="text/css">
	.st0{fill:#FFD200;}
	.st1{fill:#FFFFFF;}
</style>
<g>
	<path class="st0" d="M41,23.1l-1.2,5.6l-0.1,0.3c-0.7-1.2-1.7-2.3-2.9-3.4c-1.4-1.2-3-2.6-4.2-3.9c-0.3-0.3-0.5-0.6-0.5-1.2   c0-0.8,0.7-1.5,1.5-1.5c0.7,0,1.2,0.4,1.4,0.9c0.1,0.4,0,0.9-0.4,1.1c-0.9,0.6-0.5,1.9,0.6,1.9L41,23.1L41,23.1z M33.9,13.4   c-3.8-0.4-8.1,2-8.8,5.9c-0.5-0.4-1.1-0.7-1.8-0.7l-8.7,0c1.5-0.7,3-1.3,4.4-1.7c2.3-0.7,4.5-1.2,6-1.5l1.9-0.3l0.6-0.1   c0.7-0.2,0.9-0.6,1-0.8c0.1-0.6-0.3-1.2-0.9-1.2c-2.9-0.1-5.6-0.1-8.2,0.3c3.8-1.1,8.2-1.6,13.4-1.6C33,12.3,33.4,12.9,33.9,13.4   L33.9,13.4z M16.7,30.3l1.7-8l0.6,0.1c0.5,0.1,0.5,0.4,0.5,0.8l-1.6,7.4c-0.1,0.5-0.5,0.8-0.8,0.8C16.7,31.3,16.5,30.8,16.7,30.3   L16.7,30.3z M24.4,30.7l1.4-6.3c0.6,1,1.5,2,2.6,2.9c0.4,0.3,1.2,1,2.1,1.8l0.6,0.5C28.5,28.8,26,29.5,24.4,30.7L24.4,30.7z    M26.9,36.9c-0.2-1.2,0.7-1.9,1.6-1.6c0.4,0.1,1,0.5,1.6,1.3l0.3,0.4c0.6,0.8,1.7,0.5,1.9-0.4l0.9-4.6c0.5,0.7,0.7,1.5,0.7,2.3   c0,0.6-0.3,1.6-0.6,2.1C31.6,40.3,27.4,39,26.9,36.9L26.9,36.9z M11,23.2l-1.6,7.4c-0.1,0.5-0.5,0.8-0.8,0.8   c-0.3-0.1-0.5-0.5-0.4-1l1.7-8l0.6,0.1C11,22.5,11,22.8,11,23.2L11,23.2z M46.7,30.3l1.7-8l0.6,0.1c0.5,0.1,0.5,0.4,0.5,0.8   l-1.6,7.4c-0.1,0.5-0.5,0.8-0.8,0.8C46.7,31.3,46.6,30.8,46.7,30.3L46.7,30.3z M65.8,2.6h-3.7l-1.5,0h-2H40.4c-0.7,0-1.3,0.1-2,0.2   c-2.4,0.6-4.7,2.2-5.8,4.3h-0.2C19.8,7.3,9.5,10,3.9,18.6H2.2c-0.5,0-0.9,0.4-1,0.8l-0.3,1.6c-0.1,0.6,0.3,1.2,0.9,1.3   c0,0,0.3,0,0.6,0.2c0.2,0.1,0.3,0.2,0.2,0.7l-1.2,5.5c-1.2,5.6,2.2,8,5,8.1c1.4,0,2.8-0.6,3.9-1.8c2.5,2.5,6.3,2.2,8.4,0   c0.9,0.9,2,1.4,3.1,1.7c0.1,1.4,0.6,2.9,1.7,4.2c3.7,4.5,12,4.6,16-1.7c0.8-1.3,1.4-2.7,1.5-4.1c1,1.1,2.4,1.7,3.7,1.7   c1.4,0,2.8-0.6,3.9-1.8c2.8,2.8,7.5,2.3,9.4-1.3c0.1-0.1,0.1-0.4,0.1-0.5v-1.5c0-1.1-1.3-1.5-1.9-0.6c-0.3,0.4-1.5,0.7-1.1-1.2   l1.6-7.6c0.6-2.4-1.3-3.6-2.9-3.6l-14.2,0c-0.3-1.1-0.7-2-1.3-2.7c0.7,0.2,1.3,0.2,2,0.2l18.2,0l0.9,0l1.6,0c1.9,0,3.2-1,3.7-2.9   c0.2-0.7-0.2-1.2-0.9-1.2h-3.7h-1.7l-0.3-0.5l1.5,0l0.9,0l1.6,0c1.9,0,3.2-1,3.7-2.9c0.2-0.7-0.2-1.2-0.9-1.2h-3.7h-1.5h-1.5   c0.1-0.2,0.3-0.4,0.4-0.6l2.1,0l0.9,0l1.6,0c1.9,0,3.2-1,3.7-2.9C67,3.1,66.6,2.6,65.8,2.6L65.8,2.6z"/>
	<path d="M23.3,30.4c-0.3,1.2,0.1,2,0.6,2.5c1.6-2.4,5-3.6,8.3-1.7l0.1,0.1l-1.1,5c0,0-0.2-0.3-0.3-0.4c-0.7-0.8-1.4-1.4-2.1-1.6   c-1.7-0.5-3.4,0.9-2.9,2.9c0.7,3.4,6.4,4.3,8.4-0.3c0.3-0.6,0.6-1.7,0.6-2.5c0-1.7-0.7-3-1.9-4.3c-0.6-0.6-3.3-2.9-4-3.5   c-2.2-1.7-3.1-3.4-3.1-5.2c0.1-8.3,12.3-9.1,12.8-1.6l6.7,0c1.1,0,2.1,1.1,1.9,2.3l-1.7,7.6c-0.7,3.6,2.7,3.4,3.2,1.1l1.6-7.2   c0.4-2-1.7-2.2-1.7-2.2l0.3-1.6H54c1.2,0,2.2,0.8,1.8,2.3l-1.6,7.6c-0.7,3.3,2.2,3.2,3,2.1v1.5c-1.8,3.3-6.4,3.4-8.5,0   c-0.9,1.7-2.4,2.5-3.9,2.5c-2.1,0-4.9-1.8-3.9-6.8l1.3-6.2c0.1-0.5-0.3-0.7-0.6-0.7l-6.3,0c0.6-0.5,1.1-1.4,0.7-2.3   c-0.4-1-1.3-1.6-2.4-1.6c-1.4,0-2.5,1.1-2.6,2.5c0,0.2,0,0.3,0,0.5c0.1,0.5,0.3,1,0.8,1.5c1.3,1.4,2.8,2.7,4.3,4   c4.6,3.9,4.9,8.4,2.5,12.1c-3.6,5.6-11,5.5-14.3,1.5c-1.2-1.4-1.6-3-1.4-4.5c-1.6-0.1-3.2-0.8-4.3-2.5c-1.6,3-6.2,3.6-8.4,0   c-0.9,1.7-2.4,2.5-3.9,2.5c-2.1,0-5-1.8-3.9-6.8l1.2-5.5c0.5-2-1.7-2.2-1.7-2.2l0.3-1.6h5c1.3,0,2,1,1.7,2.3l-1.7,7.6   c-0.7,3.5,2.7,3.5,3.2,1.1l1.6-7.3c0.4-1.9-1.7-2.1-1.7-2.1l0.3-1.6h4.9c1,0,2.1,1,1.9,2.1l-1.7,7.8c-0.7,3.7,2.7,3.4,3.2,1.1   l1.5-7.2c0.4-1.9-1.7-2.1-1.7-2.1l0.3-1.6l4.2,0c1.1,0,2.1,1.1,1.8,2.3L23.3,30.4L23.3,30.4z"/>
	<path d="M40.4,5.7c-1.7,0-3.1,0.8-4,2.1l-0.3,0.5h1.2c1.7,0,3.1-0.8,4-2.1l0.3-0.5H40.4L40.4,5.7z M47.3,5.7c-1.7,0-3.1,0.8-4,2.1   l-0.3,0.5h1.2c1.7,0,3.1-0.8,4-2.1l0.3-0.5H47.3L47.3,5.7z M54.1,5.7c-1.7,0-3.1,0.8-4,2.1l-0.3,0.5H51c1.7,0,3.1-0.8,4-2.1   l0.3-0.5H54.1L54.1,5.7z M37.3,10.4l-1.2,0l0.3,0.5c0.9,1.3,2.4,2.1,4,2.1h1.2l-0.3-0.5C40.4,11.3,39,10.4,37.3,10.4L37.3,10.4z    M44.1,10.4l-1.2,0l0.3,0.5c0.9,1.3,2.4,2.1,4,2.1h1.2l-0.3-0.5C47.3,11.3,45.8,10.4,44.1,10.4L44.1,10.4z M51,10.4l-1.2,0l0.3,0.5   c0.9,1.3,2.4,2.1,4,2.1h1.2L55,12.5C54.1,11.3,52.6,10.4,51,10.4L51,10.4z M10.1,17.1c5-2.5,10.9-3.5,17.3-3.1   c-0.3,0-8.8,1.1-15,4.7H5.3c5.5-7.9,15.5-10.3,27.9-10.3c1-2.7,4.3-4.7,7.3-4.7h3.3c0,0.4-0.1,0.8-0.2,1.2c1.1-0.7,2.3-1.2,3.7-1.2   h3.3c0,0.4-0.1,0.8-0.2,1.2c1.1-0.7,2.3-1.2,3.7-1.2h4.5h2h1.5h3.7c-0.4,1.5-1.3,2.2-2.8,2.2l-1.6,0l-0.9,0l-2.7,0   c-0.5,1-1.3,1.9-2.3,2.5l4,0h1.5l3.7,0c-0.4,1.5-1.3,2.2-2.8,2.2l-1.6,0l-0.9,0l-3.9,0c0.9,0.6,1.7,1.5,2.2,2.5h0.7h1.5l3.7,0   c-0.4,1.5-1.3,2.2-2.8,2.2l-1.6,0l-0.9,0l-4.5,0c-1.4,0-2.7-0.4-3.7-1.2c0.1,0.4,0.2,0.8,0.2,1.2h-3.3c-1.4,0-2.7-0.4-3.7-1.2   c0.1,0.4,0.2,0.8,0.2,1.2h-3.3c-3,0-6.2-2-7-4.7C23.3,10.5,15.5,12,10.1,17.1L10.1,17.1z"/>
	<path class="st1" d="M74.1,5.9c-0.5,0-0.8-0.4-0.8-0.8c0-0.5,0.4-0.8,0.8-0.8c0.5,0,0.8,0.4,0.8,0.8C74.9,5.5,74.5,5.9,74.1,5.9   L74.1,5.9z M74.1,9.2c-0.5,0-0.8-0.4-0.8-0.8c0-0.5,0.4-0.8,0.8-0.8c0.5,0,0.8,0.4,0.8,0.8C74.9,8.9,74.5,9.2,74.1,9.2L74.1,9.2z    M74.1,12.6c-0.5,0-0.8-0.4-0.8-0.8c0-0.5,0.4-0.8,0.8-0.8c0.5,0,0.8,0.4,0.8,0.8C74.9,12.2,74.5,12.6,74.1,12.6L74.1,12.6z    M74.1,15.9c-0.5,0-0.8-0.4-0.8-0.8c0-0.5,0.4-0.8,0.8-0.8c0.5,0,0.8,0.4,0.8,0.8C74.9,15.6,74.5,15.9,74.1,15.9L74.1,15.9z    M74.1,19.3c-0.5,0-0.8-0.4-0.8-0.8s0.4-0.8,0.8-0.8c0.5,0,0.8,0.4,0.8,0.8S74.5,19.3,74.1,19.3L74.1,19.3z M74.1,22.6   c-0.5,0-0.8-0.4-0.8-0.8c0-0.5,0.4-0.8,0.8-0.8c0.5,0,0.8,0.4,0.8,0.8C74.9,22.2,74.5,22.6,74.1,22.6L74.1,22.6z M74.1,26   c-0.5,0-0.8-0.4-0.8-0.8c0-0.5,0.4-0.8,0.8-0.8c0.5,0,0.8,0.4,0.8,0.8C74.9,25.6,74.5,26,74.1,26L74.1,26z M74.1,29.3   c-0.5,0-0.8-0.4-0.8-0.8c0-0.5,0.4-0.8,0.8-0.8c0.5,0,0.8,0.4,0.8,0.8C74.9,28.9,74.5,29.3,74.1,29.3L74.1,29.3z M74.1,32.6   c-0.5,0-0.8-0.4-0.8-0.8c0-0.5,0.4-0.8,0.8-0.8c0.5,0,0.8,0.4,0.8,0.8C74.9,32.3,74.5,32.6,74.1,32.6L74.1,32.6z M74.1,36   c-0.5,0-0.8-0.4-0.8-0.8c0-0.5,0.4-0.8,0.8-0.8c0.5,0,0.8,0.4,0.8,0.8C74.9,35.6,74.5,36,74.1,36L74.1,36z M74.1,39.3   c-0.5,0-0.8-0.4-0.8-0.8c0-0.5,0.4-0.8,0.8-0.8c0.5,0,0.8,0.4,0.8,0.8C74.9,39,74.5,39.3,74.1,39.3L74.1,39.3z M74.1,2.5   c-0.5,0-0.8-0.4-0.8-0.8c0-0.5,0.4-0.8,0.8-0.8c0.5,0,0.8,0.4,0.8,0.8C74.9,2.2,74.5,2.5,74.1,2.5L74.1,2.5z"/>
	<path class="st1" d="M185.2,16.5V7.1c0-0.1,0.1-0.2,0.2-0.2h6.2c0.1,0,0.2,0.1,0.2,0.2v1.2c0,0.1-0.1,0.2-0.2,0.2h-4.5   c0,0-0.1,0-0.1,0.1v2.3c0,0,0,0.1,0.1,0.1h4.1c0.1,0,0.2,0.1,0.2,0.2v1.2c0,0.1-0.1,0.2-0.2,0.2h-4.1c0,0-0.1,0-0.1,0.1V15   c0,0,0,0.1,0.1,0.1h4.5c0.1,0,0.2,0.1,0.2,0.2v1.2c0,0.1-0.1,0.2-0.2,0.2h-6.2C185.3,16.7,185.2,16.6,185.2,16.5L185.2,16.5z    M183.6,7.1v1.3c0,0.1-0.1,0.2-0.2,0.2h-2.9c0,0-0.1,0-0.1,0.1v7.9c0,0.1-0.1,0.2-0.2,0.2h-1.4c-0.1,0-0.2-0.1-0.2-0.2V8.6   c0,0,0-0.1-0.1-0.1h-2.9c-0.1,0-0.2-0.1-0.2-0.2V7.1c0-0.1,0.1-0.2,0.2-0.2h7.7C183.5,6.9,183.6,7,183.6,7.1L183.6,7.1z    M172.9,12.9l-1.4-4.1c0-0.1-0.1-0.1-0.2,0l-1.4,4.1c0,0.1,0,0.1,0.1,0.1h2.9C172.8,13.1,172.9,13,172.9,12.9L172.9,12.9z    M170.4,6.9h1.8c0.1,0,0.1,0,0.2,0.1l3.5,9.4c0,0.1,0,0.2-0.2,0.2h-1.4c-0.1,0-0.1,0-0.2-0.1l-0.7-2c0,0-0.1-0.1-0.1-0.1h-4   c0,0-0.1,0-0.1,0.1l-0.7,2c0,0.1-0.1,0.1-0.2,0.1h-1.4c-0.1,0-0.2-0.1-0.2-0.2l3.5-9.4C170.3,7,170.4,6.9,170.4,6.9L170.4,6.9z    M167.3,7.1v1.3c0,0.1-0.1,0.2-0.2,0.2h-2.9c0,0-0.1,0-0.1,0.1v7.9c0,0.1-0.1,0.2-0.2,0.2h-1.4c-0.1,0-0.2-0.1-0.2-0.2V8.6   c0,0,0-0.1-0.1-0.1h-2.9c-0.1,0-0.2-0.1-0.2-0.2V7.1c0-0.1,0.1-0.2,0.2-0.2h7.7C167.2,6.9,167.3,7,167.3,7.1L167.3,7.1z M154.9,4.1   c1.1,0,2.3,0.1,3.3,0.4c0.1,0,0.1,0.1,0.1,0.2l-0.1,1.2c0,0.1-0.1,0.2-0.2,0.1c-0.9-0.2-2.1-0.3-3-0.3c-2,0-2.2,0.4-2.2,1.7   c0,0.9,0,1.2,0.3,1.5c0.3,0.3,0.8,0.4,2.1,0.7c3.3,0.8,3.5,1.3,3.5,3.8c0,2.2-0.7,3.4-4.1,3.4c-1.2,0-2.6-0.2-3.6-0.6   c-0.1,0-0.1-0.1-0.1-0.2l0.2-1.2c0-0.1,0.1-0.2,0.2-0.1c1.1,0.3,2.2,0.5,3.3,0.5c1.9,0,2.2-0.5,2.2-1.8c0-0.8,0-1.2-0.3-1.5   c-0.3-0.3-0.9-0.5-2.1-0.7c-3-0.7-3.4-1.3-3.4-3.9C150.9,5.2,151.9,4.1,154.9,4.1L154.9,4.1z M141.1,12.9l-1.4-4.1   c0-0.1-0.1-0.1-0.2,0l-1.4,4.1c0,0.1,0,0.1,0.1,0.1h2.9C141.1,13.1,141.1,13,141.1,12.9L141.1,12.9z M138.7,6.9h1.8   c0.1,0,0.1,0,0.2,0.1l3.5,9.4c0,0.1,0,0.2-0.2,0.2h-1.4c-0.1,0-0.1,0-0.2-0.1l-0.7-2c0,0-0.1-0.1-0.1-0.1h-4c0,0-0.1,0-0.1,0.1   l-0.7,2c0,0.1-0.1,0.1-0.2,0.1h-1.4c-0.1,0-0.2-0.1-0.2-0.2l3.5-9.4C138.5,7,138.6,6.9,138.7,6.9L138.7,6.9z M135.5,7.1v1.3   c0,0.1-0.1,0.2-0.2,0.2h-2.9c0,0-0.1,0-0.1,0.1v7.9c0,0.1-0.1,0.2-0.2,0.2h-1.4c-0.1,0-0.2-0.1-0.2-0.2V8.6c0,0,0-0.1-0.1-0.1h-2.9   c-0.1,0-0.2-0.1-0.2-0.2V7.1c0-0.1,0.1-0.2,0.2-0.2h7.7C135.4,6.9,135.5,7,135.5,7.1L135.5,7.1z M123.5,16.5V7.1   c0-0.1,0.1-0.2,0.2-0.2h1.4c0.1,0,0.2,0.1,0.2,0.2v9.4c0,0.1-0.1,0.2-0.2,0.2h-1.4C123.6,16.7,123.5,16.6,123.5,16.5L123.5,16.5z    M112.6,7.1c0-0.1,0.1-0.2,0.2-0.2h1.4c0.1,0,0.2,0.1,0.2,0.2v3.7c0,0,0,0.1,0.1,0.1h4.1c0,0,0.1,0,0.1-0.1V7.1   c0-0.1,0.1-0.2,0.2-0.2h1.4c0.1,0,0.2,0.1,0.2,0.2v9.4c0,0.1-0.1,0.2-0.2,0.2h-1.4c-0.1,0-0.2-0.1-0.2-0.2v-3.9c0,0,0-0.1-0.1-0.1   h-4.1c0,0-0.1,0-0.1,0.1v3.9c0,0.1-0.1,0.2-0.2,0.2h-1.4c-0.1,0-0.2-0.1-0.2-0.2V7.1L112.6,7.1z M110.2,7.2l-0.1,1.2   c0,0.1-0.1,0.2-0.2,0.1c-0.8-0.1-1.9-0.2-2.6-0.2c-1.5,0-2,0.3-2,1.5v3.9c0,1.2,0.5,1.5,2,1.5c0.7,0,1.8-0.1,2.6-0.2   c0.1,0,0.2,0.1,0.2,0.1l0.1,1.2c0,0.1-0.1,0.2-0.1,0.2c-1,0.2-2,0.3-2.8,0.3c-2.7,0-3.8-1-3.8-3V9.8c0-2,1.1-3,3.8-3   c0.8,0,1.8,0.1,2.8,0.3C110.1,7.1,110.2,7.1,110.2,7.2L110.2,7.2z M98.8,16.5V7.1c0-0.1,0.1-0.2,0.2-0.2h1.4c0.1,0,0.2,0.1,0.2,0.2   v9.4c0,0.1-0.1,0.2-0.2,0.2H99C98.9,16.7,98.8,16.6,98.8,16.5L98.8,16.5z M93.9,16.7h-2.1c-0.1,0-0.1-0.1-0.2-0.1l-2.3-10   c0-0.1-0.2-0.1-0.2,0l-2.3,10c0,0.1-0.1,0.1-0.2,0.1h-2.1c-0.1,0-0.1-0.1-0.2-0.1L81.1,4.5c0-0.1,0.1-0.2,0.2-0.2h1.4   c0.1,0,0.1,0.1,0.2,0.1l2.6,9.8c0,0.1,0.2,0.1,0.2,0L88,4.4c0-0.1,0.1-0.1,0.2-0.1h2.1c0.1,0,0.1,0.1,0.2,0.1l2.3,9.8   c0,0.1,0.2,0.1,0.2,0l2.6-9.8c0-0.1,0.1-0.1,0.2-0.1H97c0.1,0,0.2,0.1,0.2,0.2L94,16.5C94,16.6,93.9,16.7,93.9,16.7L93.9,16.7z    M165.3,30.1v2.7c0,0.1-0.1,0.2-0.2,0.2h-1.4c-0.1,0-0.2-0.1-0.2-0.2v-2.7c0,0,0,0,0,0l-3.5-6.5c-0.1-0.1,0-0.2,0.1-0.2h1.5   c0.1,0,0.1,0,0.1,0.1l2.5,4.8c0,0.1,0.1,0.1,0.2,0l2.5-4.8c0-0.1,0.1-0.1,0.1-0.1h1.5c0.1,0,0.2,0.1,0.1,0.2L165.3,30.1   C165.3,30,165.3,30.1,165.3,30.1L165.3,30.1z M159.4,23.4v1.3c0,0.1-0.1,0.2-0.2,0.2h-2.9c0,0-0.1,0-0.1,0.1v7.9   c0,0.1-0.1,0.2-0.2,0.2h-1.4c-0.1,0-0.2-0.1-0.2-0.2V25c0,0,0-0.1-0.1-0.1h-2.9c-0.1,0-0.2-0.1-0.2-0.2v-1.3c0-0.1,0.1-0.2,0.2-0.2   h7.7C159.4,23.3,159.4,23.3,159.4,23.4L159.4,23.4z M147.8,32.8v-9.4c0-0.1,0.1-0.2,0.2-0.2h1.4c0.1,0,0.2,0.1,0.2,0.2v9.4   c0,0.1-0.1,0.2-0.2,0.2H148C147.9,33,147.8,32.9,147.8,32.8L147.8,32.8z M142.1,23.1c0.8,0,2,0.1,2.9,0.3c0.1,0,0.1,0.1,0.1,0.2   l-0.1,1.2c0,0.1-0.1,0.2-0.2,0.1c-0.8-0.2-2-0.3-2.7-0.3c-1.7,0-1.9,0.2-1.9,1.1c0,0.5,0,0.8,0.2,0.9c0.2,0.2,0.8,0.4,1.8,0.6   c2.8,0.8,3,1.2,3,3c0,1.8-0.6,2.8-3.6,2.8c-1,0-2.3-0.2-3.3-0.6c-0.1,0-0.1-0.1-0.1-0.2l0.2-1.1c0-0.1,0.1-0.2,0.2-0.1   c1,0.3,2.1,0.4,3,0.4c1.6,0,1.8-0.3,1.8-1.2c0-0.6,0-0.8-0.2-1c-0.2-0.2-0.8-0.4-1.9-0.6c-2.8-0.7-3-1.3-3-3.1   C138.4,23.7,139.4,23.1,142.1,23.1L142.1,23.1z M130.5,24.9v3.3c0,0,0,0.1,0.1,0.1h2.6c1,0,1.2-0.3,1.2-1.1V26   c0-0.8-0.2-1.1-1.2-1.1L130.5,24.9C130.5,24.8,130.5,24.9,130.5,24.9L130.5,24.9z M128.7,23.4c0-0.1,0.1-0.2,0.2-0.2h4.2   c2.4,0,3.1,1,3.1,2.5v1.5c0,1-0.3,1.8-1.3,2.2c-0.1,0-0.1,0.1,0,0.1l2,3c0.1,0.1,0,0.3-0.1,0.3h-1.6c-0.1,0-0.1,0-0.1-0.1l-2-3   c0,0-0.1,0-0.1,0h-2.3c0,0-0.1,0-0.1,0.1v2.9c0,0.1-0.1,0.2-0.2,0.2h-1.4c-0.1,0-0.2-0.1-0.2-0.2V23.4L128.7,23.4z M119.4,32.8   v-9.4c0-0.1,0.1-0.2,0.2-0.2h6.2c0.1,0,0.2,0.1,0.2,0.2v1.2c0,0.1-0.1,0.2-0.2,0.2h-4.5c0,0-0.1,0-0.1,0.1v2.3c0,0,0,0.1,0.1,0.1   h4.1c0.1,0,0.2,0.1,0.2,0.2v1.2c0,0.1-0.1,0.2-0.2,0.2h-4.1c0,0-0.1,0-0.1,0.1v2.4c0,0,0,0.1,0.1,0.1h4.5c0.1,0,0.2,0.1,0.2,0.2   v1.2c0,0.1-0.1,0.2-0.2,0.2h-6.2C119.5,33,119.4,32.9,119.4,32.8L119.4,32.8z M114,33H112c-0.1,0-0.1,0-0.2-0.1l-3.3-9.4   c0-0.1,0-0.2,0.2-0.2h1.4c0.1,0,0.1,0,0.2,0.1l2.6,7.6c0,0.1,0.1,0.1,0.2,0l2.6-7.6c0-0.1,0.1-0.1,0.2-0.1h1.4   c0.1,0,0.2,0.1,0.2,0.2l-3.3,9.4C114.1,32.9,114,33,114,33L114,33z M105,32.8v-9.4c0-0.1,0.1-0.2,0.2-0.2h1.4   c0.1,0,0.2,0.1,0.2,0.2v9.4c0,0.1-0.1,0.2-0.2,0.2h-1.4C105,33,105,32.9,105,32.8L105,32.8z M94.1,23.3H96c0.1,0,0.1,0,0.1,0.1   l4.1,6.9c0.1,0.1,0.2,0.1,0.2,0v-6.8c0-0.1,0.1-0.2,0.2-0.2h1.4c0.1,0,0.2,0.1,0.2,0.2v9.4c0,0.1-0.1,0.2-0.2,0.2H100   c-0.1,0-0.1,0-0.1-0.1L95.8,26c-0.1-0.1-0.2-0.1-0.2,0v6.8c0,0.1-0.1,0.2-0.2,0.2h-1.4c-0.1,0-0.2-0.1-0.2-0.2v-9.4   C93.9,23.3,94,23.3,94.1,23.3L94.1,23.3z M86.6,31.5c1.9,0,2.6-0.8,2.6-2.2v-8.6c0-0.1,0.1-0.2,0.2-0.2h1.5c0.1,0,0.2,0.1,0.2,0.2   v8.7c0,2.1-1.2,3.7-4.4,3.7c-3.2,0-4.4-1.7-4.4-3.7v-8.7c0-0.1,0.1-0.2,0.2-0.2h1.5c0.1,0,0.2,0.1,0.2,0.2v8.6   C84,30.8,84.8,31.5,86.6,31.5L86.6,31.5z"/>
	<path class="st0" d="M67.3,4.2c0,0.9,0.6,1.6,1.6,1.6c1,0,1.6-0.7,1.6-1.6c0-0.9-0.6-1.6-1.6-1.6C68,2.6,67.3,3.3,67.3,4.2   L67.3,4.2z M67.7,4.2c0-0.7,0.4-1.3,1.2-1.3c0.8,0,1.2,0.6,1.2,1.3c0,0.7-0.4,1.3-1.2,1.3C68.1,5.5,67.7,4.9,67.7,4.2L67.7,4.2z    M69.4,4.9h0.3l-0.4-0.5c0.2-0.1,0.2-0.2,0.2-0.3V3.8c0-0.2-0.1-0.4-0.5-0.4h-0.6v1.5h0.2V4.4H69L69.4,4.9L69.4,4.9z M69.2,3.8V4   c0,0.1-0.1,0.2-0.2,0.2h-0.3V3.7H69C69.2,3.7,69.2,3.7,69.2,3.8L69.2,3.8z"/>
</g>
</svg>